<?xml version="1.0" encoding="utf-8"?>
<!-- Generator: Adobe Illustrator 24.0.2, SVG Export Plug-In . SVG Version: 6.00 Build 0)  -->
<svg version="1.1" id="Layer_1" xmlns="http://www.w3.org/2000/svg" xmlns:xlink="http://www.w3.org/1999/xlink" x="0px" y="0px"
	 viewBox="0 0 300 300" style="enable-background:new 0 0 300 300;" xml:space="preserve">
<style type="text/css">
	.st0{fill:#694E34;}
	.st1{fill:#D8BF97;}
	.st2{fill:#492F04;}
	.st3{font-family:'ErasITC-Demi';}
	.st4{font-size:59.4044px;}
	.st5{fill:none;}
</style>
<g>
	<rect class="st0" width="300" height="300"/>
</g>
<g>
	<path class="st1" d="M268.9,165c41.4-51.8,26.9-118.5-10-139.9c-26.6-15.4-67-8.5-98,17.7c-36.5-31.2-90.6-29.2-123.2,3
		C7.6,75.5,2.7,124.3,27.2,161c36,40.7,72,81.5,108,122.2C179.7,243.8,224.3,204.4,268.9,165z"/>
</g>
<g>
	<rect x="118.5" y="92.5" class="st2" width="88.9" height="66.1"/>
</g>
<polygon class="st2" points="164,56.6 104,95 164,95 "/>
<polygon class="st2" points="221.9,95.9 163.3,95.9 163.3,37.4 "/>
<g>
	<rect x="147.5" y="130.4" class="st1" width="29.6" height="44.1"/>
</g>
<rect x="137.1" y="55.7" class="st2" width="7.6" height="17.9"/>
<rect x="135.1" y="52.5" class="st2" width="12.4" height="4.1"/>
<text transform="matrix(0.842 0.5443 -0.5429 0.8398 16.3819 139.2046)"><tspan x="0" y="0" class="st2 st3 st4">Favorit </tspan><tspan x="212.2" y="0" class="st1 st3 st4">ues</tspan></text>
<path class="st1" d="M198,223"/>
<line class="st5" x1="85.6" y1="214.5" x2="85.6" y2="214.5"/>
<polyline class="st5" points="84.5,206.4 85.8,208.6 85.6,214.8 "/>
<line class="st5" x1="83.5" y1="205.5" x2="77.2" y2="205.5"/>
<g>
	<g>
		<path class="st1" d="M87.9,212.5c-0.2-0.4,0,0.2-0.1-0.2c-0.1-0.2-0.1-0.3-0.1-0.5c-0.1-0.3-0.1-0.5-0.2-0.8
			c-0.2-0.7-0.5-1.3-0.7-2c-0.5-1.2-1.1-2.4-1.7-3.6c-1.2-2.4-3.7-3.6-6.3-3.1c-0.8,0.1-1.3,1.1-1,1.8c0.3,0.8,1,1.2,1.8,1
			c0.4-0.1-0.2,0,0.1,0c0.1,0,0.2,0,0.3,0c0.1,0,0.2,0,0.3,0c0.2,0-0.3-0.1,0.1,0c0.2,0.1,0.4,0.1,0.7,0.2c-0.1-0.1-0.1,0,0,0
			c0.1,0.1,0.2,0.1,0.4,0.2c0.1,0,0.2,0.1,0.2,0.2c-0.2-0.2,0,0,0.1,0.1c0.1,0.1,0.2,0.2,0.2,0.2c0.2,0.2,0,0,0.1,0.1
			c0.3,0.5,0.5,1,0.8,1.5c0.2,0.5,0.5,1,0.7,1.6c0.1,0.3,0.3,0.5,0.4,0.8c0.1,0.1,0.1,0.3,0.2,0.4c0,0,0.1,0.3,0.1,0.2
			c0.4,1.1,0.5,2.3,1.1,3.3c0.4,0.7,1.4,1,2.1,0.5C88.1,214.1,88.3,213.3,87.9,212.5L87.9,212.5z"/>
	</g>
</g>
<path class="st2" d="M183,78.5c-6.7-7.2-13.3-14.3-20-21.5v45h41C197,94.2,190,86.3,183,78.5z"/>
<polygon class="st2" points="167,54.6 107,93 167,93 "/>
</svg>
