<?xml version="1.0" encoding="utf-8"?>
<!-- Generator: Adobe Illustrator 24.0.2, SVG Export Plug-In . SVG Version: 6.00 Build 0)  -->
<svg version="1.1" id="Layer_1" xmlns="http://www.w3.org/2000/svg" xmlns:xlink="http://www.w3.org/1999/xlink" x="0px" y="0px"
	 viewBox="0 0 300 300" style="enable-background:new 0 0 300 300;" xml:space="preserve">
<style type="text/css">
	.st0{fill:#694E34;}
	.st1{fill:#D8BF97;}
	.st2{fill:none;}
	.st3{fill:#492F04;}
	.st4{font-family:'MyriadPro-Regular';}
	.st5{font-size:93.172px;}
	.st6{font-size:100.3799px;}
</style>
<g>
	<rect x="0" y="0" class="st0" width="300" height="300"/>
</g>
<g>
	<path class="st1" d="M566.9,235c41.4-51.8,26.9-118.5-10-139.9c-26.6-15.4-67-8.5-98,17.7c-36.5-31.2-90.6-29.2-123.2,3
		c-30.1,29.7-35.1,78.5-10.5,115.2c36,40.7,72,81.5,108,122.2C477.7,313.8,522.3,274.4,566.9,235z"/>
</g>
<path class="st1" d="M198,223"/>
<line class="st2" x1="85.6" y1="214.5" x2="85.6" y2="214.5"/>
<polyline class="st2" points="84.5,206.4 85.8,208.6 85.6,214.8 "/>
<line class="st2" x1="83.5" y1="205.4" x2="77.2" y2="205.4"/>
<ellipse class="st1" cx="157.9" cy="74.6" rx="104.4" ry="60.4"/>
<path class="st1" d="M261.7,134.8c-25.6,7.9-63,16.3-108.7,16.2c-44.4-0.1-80.8-8.3-106-16c-17,47.2-34,94.4-51,141.6h310.9
	C291.8,229.3,276.7,182.1,261.7,134.8z"/>
<text transform="matrix(0.9996 7.695074e-02 -7.675320e-02 0.9971 33.9493 228.565)"><tspan x="0" y="0" class="st3 st4 st5">Lo</tspan><tspan x="95.1" y="0" class="st3 st4 st6">g</tspan><tspan x="151.2" y="0" class="st3 st4 st5">in</tspan></text>
<path class="st3" d="M248,126.7c-29.1,44.5-42.4,52.4-49,50.7c-1.6-0.4-6.7-2.4-9.3,0c-2,1.8-2.9,6.4,0,9.3c2.6,2.6,6.8,2.6,9.3,0"
	/>
</svg>
