<?xml version="1.0" encoding="utf-8"?>
<!-- Generator: Adobe Illustrator 24.0.2, SVG Export Plug-In . SVG Version: 6.00 Build 0)  -->
<svg version="1.1" id="Layer_1" xmlns="http://www.w3.org/2000/svg" xmlns:xlink="http://www.w3.org/1999/xlink" x="0px" y="0px"
	 viewBox="0 0 300 300" style="enable-background:new 0 0 300 300;" xml:space="preserve">
<style type="text/css">
	.st0{fill:#D8BF97;}
	.st1{fill:#492F04;}
	.st2{font-family:'BerlinSansFBDemi-Bold';}
	.st3{font-size:45.7483px;}
	.st4{font-size:60.9978px;}
</style>
<g>
	<rect class="st0" width="300" height="300"/>
</g>
<g>
	<rect x="85" y="88" class="st1" width="129" height="96"/>
</g>
<polygon class="st1" points="150,36 61,93 150,93 "/>
<polygon class="st1" points="235,93 150,93 150,8 "/>
<g>
	<rect x="127" y="143" class="st0" width="43" height="64"/>
</g>
<rect x="112" y="36" class="st1" width="11" height="26"/>
<rect x="109" y="30" class="st1" width="18" height="6"/>
<text transform="matrix(1.0026 0 0 1 15 239.1055)"><tspan x="0" y="0" class="st1 st2 st3">Ho</tspan><tspan x="58.3" y="0" class="st1 st2 st4">m</tspan><tspan x="111.5" y="0" class="st1 st2 st3">e De</tspan><tspan x="201.4" y="0" class="st1 st2 st4">c</tspan><tspan x="226.8" y="0" class="st1 st2 st3">or</tspan></text>
<rect x="260" y="260" class="st1" width="40" height="40"/>
<rect class="st1" width="40" height="40"/>
<rect x="260" class="st1" width="40" height="40"/>
<rect y="260" class="st1" width="40" height="40"/>
<rect x="260" y="127" class="st1" width="40" height="40"/>
<rect y="127" class="st1" width="40" height="40"/>
</svg>
