<?xml version="1.0" encoding="utf-8"?>
<!-- Generator: Adobe Illustrator 24.0.2, SVG Export Plug-In . SVG Version: 6.00 Build 0)  -->
<svg version="1.1" id="Layer_1" xmlns="http://www.w3.org/2000/svg" xmlns:xlink="http://www.w3.org/1999/xlink" x="0px" y="0px"
	 viewBox="0 0 300 300" style="enable-background:new 0 0 300 300;" xml:space="preserve">
<style type="text/css">
	.st0{fill:#694E34;}
	.st1{fill:#D8BF97;}
	.st2{fill:none;}
</style>
<g>
	<rect x="0" y="0" class="st0" width="300" height="300"/>
</g>
<g>
	<path class="st1" d="M31.1,157.9c-11-16.7-16.1-36.8-14.2-56.7c1.9-19.8,10.5-38.3,24.3-51.9c15.6-15.4,36.6-23.9,59.3-23.9
		c21,0,41.3,7.5,57.2,21.1l3.2,2.8l3.3-2.8C182.6,31,205.3,22,226.4,22c11.2,0,21.5,2.6,29.9,7.4c15.6,9,26.9,26.7,31,48.5
		c5.4,28.6-2.6,59.1-22.1,83.6L135.6,276.1L31.1,157.9z"/>
	<path d="M226.4,27c10.3,0,19.8,2.3,27.4,6.8c14.1,8.2,24.8,25,28.6,45.1c5.1,27.1-2.5,55.9-20.8,79.2L136,269.1L35.1,154.9
		c-10.3-15.7-15-34.6-13.2-53.2c1.8-18.7,9.9-36,22.8-48.8c14.6-14.5,34.4-22.4,55.7-22.4c19.8,0,38.9,7.1,53.9,19.9l6.5,5.5
		l6.5-5.5C185,35.5,206.5,27,226.4,27 M226.4,17c-21.6,0-45.5,8.9-65.5,25.8c-17.5-15-39.1-22.3-60.4-22.3
		c-23.1,0-45.8,8.6-62.8,25.3C7.6,75.5,2.7,124.2,27.2,161c36,40.7,72,81.5,108,122.2c44.6-39.4,89.2-78.8,133.7-118.2
		c41.4-51.8,26.9-118.5-10-139.9C249.4,19.7,238.3,17,226.4,17L226.4,17z"/>
</g>
<g>
	<rect x="147.5" y="130.4" class="st1" width="29.6" height="44.1"/>
</g>
<path class="st1" d="M198,223"/>
<line class="st2" x1="85.6" y1="214.5" x2="85.6" y2="214.5"/>
<polyline class="st2" points="84.5,206.4 85.8,208.6 85.6,214.8 "/>
<line class="st2" x1="83.5" y1="205.4" x2="77.2" y2="205.4"/>
</svg>
